<svg xmlns="http://www.w3.org/2000/svg" xmlns:xlink="http://www.w3.org/1999/xlink" width="500" zoomAndPan="magnify" viewBox="0 0 375 374.999991" height="500" preserveAspectRatio="xMidYMid meet" version="1.0"><defs><g/></defs><g fill="#000000" fill-opacity="1"><g transform="translate(70.493488, 204.002579)"><g><path d="M 24.78125 0 L 2.703125 0 L 2.703125 -34.375 L 10.765625 -34.375 L 10.765625 -7.203125 L 24.78125 -7.203125 Z M 24.78125 0 "/></g></g></g><g fill="#000000" fill-opacity="1"><g transform="translate(95.623122, 204.002579)"><g><path d="M 6.265625 -27.296875 C 5.085938 -27.296875 4.078125 -27.640625 3.234375 -28.328125 C 2.398438 -29.023438 1.984375 -29.972656 1.984375 -31.171875 C 1.984375 -32.367188 2.398438 -33.320312 3.234375 -34.03125 C 4.078125 -34.738281 5.085938 -35.09375 6.265625 -35.09375 C 7.429688 -35.09375 8.4375 -34.738281 9.28125 -34.03125 C 10.125 -33.320312 10.546875 -32.367188 10.546875 -31.171875 C 10.546875 -29.972656 10.125 -29.023438 9.28125 -28.328125 C 8.4375 -27.640625 7.429688 -27.296875 6.265625 -27.296875 Z M 10.046875 0 L 2.484375 0 L 2.484375 -25.546875 L 10.046875 -25.546875 Z M 10.046875 0 "/></g></g></g><g fill="#000000" fill-opacity="1"><g transform="translate(108.1429, 204.002579)"><g><path d="M 10.046875 0 L 2.484375 0 L 2.484375 -25.546875 L 10.046875 -25.546875 L 10.046875 -22.796875 C 10.921875 -24.085938 11.890625 -24.957031 12.953125 -25.40625 C 14.015625 -25.851562 15.222656 -26.078125 16.578125 -26.078125 C 18.253906 -26.078125 19.640625 -25.875 20.734375 -25.46875 C 21.835938 -25.0625 22.710938 -24.519531 23.359375 -23.84375 C 24.003906 -23.175781 24.492188 -22.453125 24.828125 -21.671875 C 25.335938 -20.554688 25.628906 -19.441406 25.703125 -18.328125 C 25.773438 -17.222656 25.8125 -15.875 25.8125 -14.28125 L 25.8125 0 L 18.25 0 L 18.25 -14.375 C 18.25 -15.632812 18.164062 -16.628906 18 -17.359375 C 17.832031 -18.097656 17.550781 -18.664062 17.15625 -19.0625 C 16.5625 -19.6875 15.632812 -20 14.375 -20 C 13.59375 -20 12.914062 -19.898438 12.34375 -19.703125 C 11.769531 -19.515625 11.316406 -19.175781 10.984375 -18.6875 C 10.691406 -18.269531 10.460938 -17.722656 10.296875 -17.046875 C 10.128906 -16.367188 10.046875 -15.476562 10.046875 -14.375 Z M 10.046875 0 "/></g></g></g><g fill="#000000" fill-opacity="1"><g transform="translate(136.24485, 204.002579)"><g><path d="M 10.046875 0 L 2.484375 0 L 2.484375 -34.375 L 10.046875 -34.375 L 10.046875 -16.578125 L 18.15625 -25.546875 L 27.484375 -25.546875 L 16.984375 -14.546875 L 28.0625 0 L 19.0625 0 L 10.046875 -12.25 Z M 10.046875 0 "/></g></g></g><g fill="#000000" fill-opacity="1"><g transform="translate(162.860315, 204.002579)"><g><path d="M 14.78125 0.546875 C 12.070312 0.546875 9.71875 -0.0234375 7.71875 -1.171875 C 5.726562 -2.316406 4.179688 -3.867188 3.078125 -5.828125 C 1.984375 -7.796875 1.4375 -10.039062 1.4375 -12.5625 C 1.4375 -14.1875 1.679688 -15.796875 2.171875 -17.390625 C 2.671875 -18.984375 3.453125 -20.4375 4.515625 -21.75 C 5.585938 -23.070312 6.945312 -24.125 8.59375 -24.90625 C 10.25 -25.6875 12.234375 -26.078125 14.546875 -26.078125 C 16.234375 -26.078125 17.863281 -25.828125 19.4375 -25.328125 C 21.007812 -24.835938 22.421875 -24.050781 23.671875 -22.96875 C 24.921875 -21.894531 25.910156 -20.492188 26.640625 -18.765625 C 27.378906 -17.035156 27.75 -14.941406 27.75 -12.484375 L 27.75 -11.171875 L 9.375 -11.171875 C 9.582031 -9.785156 10.015625 -8.691406 10.671875 -7.890625 C 11.210938 -7.222656 11.863281 -6.734375 12.625 -6.421875 C 13.394531 -6.109375 14.25 -5.953125 15.1875 -5.953125 C 16.320312 -5.953125 17.285156 -6.234375 18.078125 -6.796875 C 18.878906 -7.367188 19.429688 -8.046875 19.734375 -8.828125 L 27.34375 -8.828125 C 26.863281 -7.148438 26.097656 -5.597656 25.046875 -4.171875 C 23.992188 -2.742188 22.617188 -1.597656 20.921875 -0.734375 C 19.222656 0.117188 17.175781 0.546875 14.78125 0.546875 Z M 9.59375 -16.53125 L 20.09375 -16.53125 C 20.03125 -16.832031 19.914062 -17.191406 19.75 -17.609375 C 19.582031 -18.035156 19.289062 -18.441406 18.875 -18.828125 C 18.332031 -19.367188 17.710938 -19.75 17.015625 -19.96875 C 16.328125 -20.195312 15.597656 -20.3125 14.828125 -20.3125 C 14.066406 -20.3125 13.332031 -20.195312 12.625 -19.96875 C 11.925781 -19.75 11.304688 -19.367188 10.765625 -18.828125 C 10.347656 -18.410156 10.0625 -18 9.90625 -17.59375 C 9.757812 -17.1875 9.65625 -16.832031 9.59375 -16.53125 Z M 9.59375 -16.53125 "/></g></g></g><g fill="#000000" fill-opacity="1"><g transform="translate(192.043113, 204.002579)"><g><path d="M 12.65625 0.546875 C 10.5 0.546875 8.578125 -0.0234375 6.890625 -1.171875 C 5.210938 -2.316406 3.898438 -3.882812 2.953125 -5.875 C 2.003906 -7.875 1.53125 -10.179688 1.53125 -12.796875 C 1.53125 -15.410156 2.003906 -17.710938 2.953125 -19.703125 C 3.898438 -21.703125 5.210938 -23.265625 6.890625 -24.390625 C 8.578125 -25.515625 10.5 -26.078125 12.65625 -26.078125 C 14.007812 -26.078125 15.222656 -25.851562 16.296875 -25.40625 C 17.378906 -24.957031 18.34375 -24.085938 19.1875 -22.796875 L 19.1875 -34.375 L 26.75 -34.375 L 26.75 0 L 19.1875 0 L 19.1875 -2.75 C 18.34375 -1.457031 17.378906 -0.582031 16.296875 -0.125 C 15.222656 0.320312 14.007812 0.546875 12.65625 0.546875 Z M 14.78125 -5.90625 C 16.457031 -5.90625 17.804688 -6.535156 18.828125 -7.796875 C 19.847656 -9.054688 20.359375 -10.722656 20.359375 -12.796875 C 20.359375 -14.835938 19.847656 -16.488281 18.828125 -17.75 C 17.804688 -19.007812 16.457031 -19.640625 14.78125 -19.640625 C 13.09375 -19.640625 11.738281 -19 10.71875 -17.71875 C 9.695312 -16.445312 9.1875 -14.804688 9.1875 -12.796875 C 9.1875 -10.785156 9.695312 -9.132812 10.71875 -7.84375 C 11.738281 -6.550781 13.09375 -5.90625 14.78125 -5.90625 Z M 14.78125 -5.90625 "/></g></g></g><g fill="#000000" fill-opacity="1"><g transform="translate(221.270944, 204.002579)"><g><path d="M 18.609375 0.765625 C 15.660156 0.765625 13.101562 0.285156 10.9375 -0.671875 C 8.78125 -1.640625 7.003906 -2.957031 5.609375 -4.625 C 4.210938 -6.289062 3.164062 -8.203125 2.46875 -10.359375 C 1.78125 -12.523438 1.4375 -14.804688 1.4375 -17.203125 C 1.4375 -19.609375 1.78125 -21.882812 2.46875 -24.03125 C 3.164062 -26.175781 4.210938 -28.082031 5.609375 -29.75 C 7.003906 -31.414062 8.78125 -32.722656 10.9375 -33.671875 C 13.101562 -34.617188 15.660156 -35.09375 18.609375 -35.09375 C 21.515625 -35.09375 24.039062 -34.617188 26.1875 -33.671875 C 28.34375 -32.722656 30.125 -31.414062 31.53125 -29.75 C 32.945312 -28.082031 34 -26.175781 34.6875 -24.03125 C 35.375 -21.882812 35.71875 -19.609375 35.71875 -17.203125 C 35.71875 -14.804688 35.375 -12.523438 34.6875 -10.359375 C 34 -8.203125 32.945312 -6.289062 31.53125 -4.625 C 30.125 -2.957031 28.34375 -1.640625 26.1875 -0.671875 C 24.039062 0.285156 21.515625 0.765625 18.609375 0.765625 Z M 18.609375 -6.4375 C 21.304688 -6.4375 23.410156 -7.410156 24.921875 -9.359375 C 26.441406 -11.316406 27.203125 -13.929688 27.203125 -17.203125 C 27.203125 -20.453125 26.441406 -23.046875 24.921875 -24.984375 C 23.410156 -26.921875 21.304688 -27.890625 18.609375 -27.890625 C 15.898438 -27.890625 13.78125 -26.921875 12.25 -24.984375 C 10.71875 -23.046875 9.953125 -20.453125 9.953125 -17.203125 C 9.953125 -13.929688 10.71875 -11.316406 12.25 -9.359375 C 13.78125 -7.410156 15.898438 -6.4375 18.609375 -6.4375 Z M 18.609375 -6.4375 "/></g></g></g><g fill="#000000" fill-opacity="1"><g transform="translate(258.470008, 204.002579)"><g><path d="M 11.53125 0.546875 C 7.351562 0.546875 4.601562 -0.925781 3.28125 -3.875 C 3.019531 -4.476562 2.820312 -5.078125 2.6875 -5.671875 C 2.550781 -6.273438 2.453125 -7.007812 2.390625 -7.875 C 2.328125 -8.75 2.296875 -9.878906 2.296875 -11.265625 L 2.296875 -25.546875 L 9.859375 -25.546875 L 9.859375 -11.171875 C 9.859375 -9.910156 9.941406 -8.921875 10.109375 -8.203125 C 10.273438 -7.484375 10.554688 -6.910156 10.953125 -6.484375 C 11.546875 -5.859375 12.472656 -5.546875 13.734375 -5.546875 C 14.578125 -5.546875 15.269531 -5.65625 15.8125 -5.875 C 16.351562 -6.101562 16.789062 -6.425781 17.125 -6.84375 C 17.75 -7.6875 18.0625 -9.128906 18.0625 -11.171875 L 18.0625 -25.546875 L 25.625 -25.546875 L 25.625 0 L 18.0625 0 L 18.0625 -2.75 C 17.3125 -1.601562 16.414062 -0.765625 15.375 -0.234375 C 14.34375 0.285156 13.0625 0.546875 11.53125 0.546875 Z M 11.53125 0.546875 "/></g></g></g><g fill="#000000" fill-opacity="1"><g transform="translate(286.571958, 204.002579)"><g><path d="M 16.390625 0 L 10.359375 0 C 8.492188 0 7.039062 -0.441406 6 -1.328125 C 4.96875 -2.210938 4.453125 -3.46875 4.453125 -5.09375 L 4.453125 -19.640625 L 0.953125 -19.640625 L 0.953125 -25.546875 L 4.453125 -25.546875 L 4.453125 -34.375 L 12.03125 -34.375 L 12.03125 -25.546875 L 16.4375 -25.546875 L 16.4375 -19.640625 L 12.03125 -19.640625 L 12.03125 -7.65625 C 12.03125 -7.300781 12.117188 -6.957031 12.296875 -6.625 C 12.472656 -6.289062 12.894531 -6.125 13.5625 -6.125 L 16.390625 -6.125 Z M 16.390625 0 "/></g></g></g></svg>