<svg xmlns="http://www.w3.org/2000/svg" xmlns:xlink="http://www.w3.org/1999/xlink" width="500" zoomAndPan="magnify" viewBox="0 0 375 374.999991" height="500" preserveAspectRatio="xMidYMid meet" version="1.0"><defs><g/><clipPath id="ac18390584"><path d="M 0.5 0.707031 L 102.082031 0.707031 L 102.082031 102.292969 L 0.5 102.292969 Z M 0.5 0.707031 " clip-rule="nonzero"/></clipPath><clipPath id="55d50aeaa5"><path d="M 17.75 0.707031 L 84.832031 0.707031 C 89.40625 0.707031 93.792969 2.527344 97.03125 5.761719 C 100.265625 8.996094 102.082031 13.382812 102.082031 17.957031 L 102.082031 85.042969 C 102.082031 89.617188 100.265625 94.003906 97.03125 97.238281 C 93.792969 100.472656 89.40625 102.292969 84.832031 102.292969 L 17.75 102.292969 C 13.175781 102.292969 8.789062 100.472656 5.550781 97.238281 C 2.316406 94.003906 0.5 89.617188 0.5 85.042969 L 0.5 17.957031 C 0.5 13.382812 2.316406 8.996094 5.550781 5.761719 C 8.789062 2.527344 13.175781 0.707031 17.75 0.707031 Z M 17.75 0.707031 " clip-rule="nonzero"/></clipPath><clipPath id="1c4fef3022"><path d="M 0.5 0.707031 L 102.082031 0.707031 L 102.082031 102.292969 L 0.5 102.292969 Z M 0.5 0.707031 " clip-rule="nonzero"/></clipPath><clipPath id="ea5f6fa61d"><path d="M 17.75 0.707031 L 84.832031 0.707031 C 89.40625 0.707031 93.792969 2.527344 97.03125 5.761719 C 100.265625 8.996094 102.082031 13.382812 102.082031 17.957031 L 102.082031 85.042969 C 102.082031 89.617188 100.265625 94.003906 97.03125 97.238281 C 93.792969 100.472656 89.40625 102.292969 84.832031 102.292969 L 17.75 102.292969 C 13.175781 102.292969 8.789062 100.472656 5.550781 97.238281 C 2.316406 94.003906 0.5 89.617188 0.5 85.042969 L 0.5 17.957031 C 0.5 13.382812 2.316406 8.996094 5.550781 5.761719 C 8.789062 2.527344 13.175781 0.707031 17.75 0.707031 Z M 17.75 0.707031 " clip-rule="nonzero"/></clipPath><clipPath id="d41546ecac"><rect x="0" width="103" y="0" height="103"/></clipPath><clipPath id="cc2cdf4c36"><rect x="0" width="87" y="0" height="88"/></clipPath><clipPath id="f64a9b0940"><rect x="0" width="103" y="0" height="103"/></clipPath><clipPath id="f424e3a5c3"><rect x="0" width="186" y="0" height="45"/></clipPath></defs><g transform="matrix(1, 0, 0, 1, 37, 136)"><g clip-path="url(#f64a9b0940)"><g clip-path="url(#ac18390584)"><g clip-path="url(#55d50aeaa5)"><g><g clip-path="url(#d41546ecac)"><g clip-path="url(#1c4fef3022)"><g clip-path="url(#ea5f6fa61d)"><path fill="#ffffff" d="M 0.5 0.707031 L 102.082031 0.707031 L 102.082031 102.292969 L 0.5 102.292969 Z M 0.5 0.707031 " fill-opacity="1" fill-rule="nonzero"/></g></g></g></g></g></g><g transform="matrix(1, 0, 0, 1, 8, 8)"><g clip-path="url(#cc2cdf4c36)"><g fill="#1f6db4" fill-opacity="1"><g transform="translate(0.523031, 70.144707)"><g><path d="M 38.625 0 L 4.21875 0 L 4.21875 -53.59375 L 16.78125 -53.59375 L 16.78125 -11.234375 L 38.625 -11.234375 Z M 38.625 0 "/></g></g></g><g fill="#1f6db4" fill-opacity="1"><g transform="translate(39.709775, 70.144707)"><g><path d="M 23.171875 0.84375 C 19.054688 0.84375 15.414062 -0.0195312 12.25 -1.75 C 9.09375 -3.488281 6.632812 -5.9375 4.875 -9.09375 C 3.125 -12.257812 2.25 -15.945312 2.25 -20.15625 C 2.25 -24.226562 3.125 -27.796875 4.875 -30.859375 C 6.632812 -33.929688 9.082031 -36.332031 12.21875 -38.0625 C 15.351562 -39.800781 19.003906 -40.671875 23.171875 -40.671875 C 27.335938 -40.671875 30.988281 -39.800781 34.125 -38.0625 C 37.269531 -36.332031 39.71875 -33.929688 41.46875 -30.859375 C 43.226562 -27.796875 44.109375 -24.226562 44.109375 -20.15625 C 44.109375 -15.945312 43.238281 -12.269531 41.5 -9.125 C 39.769531 -5.988281 37.335938 -3.539062 34.203125 -1.78125 C 31.066406 -0.03125 27.390625 0.84375 23.171875 0.84375 Z M 23.171875 -9.265625 C 25.847656 -9.265625 27.957031 -10.257812 29.5 -12.25 C 31.039062 -14.238281 31.8125 -16.875 31.8125 -20.15625 C 31.8125 -23.25 31.039062 -25.765625 29.5 -27.703125 C 27.957031 -29.648438 25.847656 -30.625 23.171875 -30.625 C 20.554688 -30.625 18.4375 -29.660156 16.8125 -27.734375 C 15.195312 -25.816406 14.390625 -23.289062 14.390625 -20.15625 C 14.390625 -16.832031 15.195312 -14.1875 16.8125 -12.21875 C 18.4375 -10.25 20.554688 -9.265625 23.171875 -9.265625 Z M 23.171875 -9.265625 "/></g></g></g></g></g></g></g><g transform="matrix(1, 0, 0, 1, 153, 165)"><g clip-path="url(#f424e3a5c3)"><g fill="#ffffff" fill-opacity="1"><g transform="translate(0.325301, 35.487346)"><g><path d="M 19.5 0 L 2.125 0 L 2.125 -27.046875 L 8.46875 -27.046875 L 8.46875 -5.671875 L 19.5 -5.671875 Z M 19.5 0 "/></g></g></g><g fill="#ffffff" fill-opacity="1"><g transform="translate(20.102024, 35.487346)"><g><path d="M 4.921875 -21.484375 C 4.003906 -21.484375 3.210938 -21.753906 2.546875 -22.296875 C 1.890625 -22.835938 1.5625 -23.582031 1.5625 -24.53125 C 1.5625 -25.476562 1.890625 -26.226562 2.546875 -26.78125 C 3.210938 -27.34375 4.003906 -27.625 4.921875 -27.625 C 5.847656 -27.625 6.640625 -27.34375 7.296875 -26.78125 C 7.960938 -26.226562 8.296875 -25.476562 8.296875 -24.53125 C 8.296875 -23.582031 7.960938 -22.835938 7.296875 -22.296875 C 6.640625 -21.753906 5.847656 -21.484375 4.921875 -21.484375 Z M 7.90625 0 L 1.953125 0 L 1.953125 -20.109375 L 7.90625 -20.109375 Z M 7.90625 0 "/></g></g></g><g fill="#ffffff" fill-opacity="1"><g transform="translate(29.954941, 35.487346)"><g><path d="M 7.90625 0 L 1.953125 0 L 1.953125 -20.109375 L 7.90625 -20.109375 L 7.90625 -17.9375 C 8.59375 -18.957031 9.351562 -19.644531 10.1875 -20 C 11.03125 -20.351562 11.984375 -20.53125 13.046875 -20.53125 C 14.367188 -20.53125 15.460938 -20.367188 16.328125 -20.046875 C 17.191406 -19.722656 17.875 -19.296875 18.375 -18.765625 C 18.882812 -18.234375 19.269531 -17.660156 19.53125 -17.046875 C 19.9375 -16.171875 20.164062 -15.296875 20.21875 -14.421875 C 20.28125 -13.554688 20.3125 -12.492188 20.3125 -11.234375 L 20.3125 0 L 14.359375 0 L 14.359375 -11.3125 C 14.359375 -12.300781 14.289062 -13.082031 14.15625 -13.65625 C 14.03125 -14.238281 13.8125 -14.6875 13.5 -15 C 13.03125 -15.488281 12.300781 -15.734375 11.3125 -15.734375 C 10.695312 -15.734375 10.164062 -15.65625 9.71875 -15.5 C 9.269531 -15.351562 8.914062 -15.09375 8.65625 -14.71875 C 8.414062 -14.382812 8.226562 -13.953125 8.09375 -13.421875 C 7.96875 -12.890625 7.90625 -12.1875 7.90625 -11.3125 Z M 7.90625 0 "/></g></g></g><g fill="#ffffff" fill-opacity="1"><g transform="translate(52.070842, 35.487346)"><g><path d="M 7.90625 0 L 1.953125 0 L 1.953125 -27.046875 L 7.90625 -27.046875 L 7.90625 -13.046875 L 14.28125 -20.109375 L 21.625 -20.109375 L 13.359375 -11.453125 L 22.09375 0 L 15 0 L 7.90625 -9.640625 Z M 7.90625 0 "/></g></g></g><g fill="#ffffff" fill-opacity="1"><g transform="translate(73.016897, 35.487346)"><g><path d="M 11.625 0.421875 C 9.5 0.421875 7.648438 -0.0234375 6.078125 -0.921875 C 4.503906 -1.816406 3.285156 -3.035156 2.421875 -4.578125 C 1.566406 -6.128906 1.140625 -7.898438 1.140625 -9.890625 C 1.140625 -11.171875 1.332031 -12.4375 1.71875 -13.6875 C 2.101562 -14.9375 2.71875 -16.082031 3.5625 -17.125 C 4.40625 -18.164062 5.472656 -18.992188 6.765625 -19.609375 C 8.066406 -20.222656 9.628906 -20.53125 11.453125 -20.53125 C 12.773438 -20.53125 14.054688 -20.332031 15.296875 -19.9375 C 16.535156 -19.550781 17.644531 -18.929688 18.625 -18.078125 C 19.613281 -17.234375 20.394531 -16.128906 20.96875 -14.765625 C 21.550781 -13.410156 21.84375 -11.765625 21.84375 -9.828125 L 21.84375 -8.796875 L 7.375 -8.796875 C 7.539062 -7.703125 7.882812 -6.835938 8.40625 -6.203125 C 8.832031 -5.679688 9.34375 -5.296875 9.9375 -5.046875 C 10.539062 -4.804688 11.210938 -4.6875 11.953125 -4.6875 C 12.847656 -4.6875 13.609375 -4.910156 14.234375 -5.359375 C 14.859375 -5.804688 15.289062 -6.335938 15.53125 -6.953125 L 21.515625 -6.953125 C 21.140625 -5.628906 20.535156 -4.40625 19.703125 -3.28125 C 18.878906 -2.15625 17.800781 -1.253906 16.46875 -0.578125 C 15.132812 0.0859375 13.519531 0.421875 11.625 0.421875 Z M 7.546875 -13.015625 L 15.8125 -13.015625 C 15.757812 -13.242188 15.664062 -13.523438 15.53125 -13.859375 C 15.40625 -14.191406 15.179688 -14.507812 14.859375 -14.8125 C 14.429688 -15.238281 13.941406 -15.539062 13.390625 -15.71875 C 12.847656 -15.894531 12.273438 -15.984375 11.671875 -15.984375 C 11.078125 -15.984375 10.5 -15.894531 9.9375 -15.71875 C 9.382812 -15.539062 8.894531 -15.238281 8.46875 -14.8125 C 8.144531 -14.488281 7.921875 -14.164062 7.796875 -13.84375 C 7.679688 -13.519531 7.597656 -13.242188 7.546875 -13.015625 Z M 7.546875 -13.015625 "/></g></g></g><g fill="#ffffff" fill-opacity="1"><g transform="translate(95.983413, 35.487346)"><g><path d="M 9.96875 0.421875 C 8.257812 0.421875 6.742188 -0.0234375 5.421875 -0.921875 C 4.097656 -1.816406 3.0625 -3.050781 2.3125 -4.625 C 1.570312 -6.195312 1.203125 -8.007812 1.203125 -10.0625 C 1.203125 -12.125 1.570312 -13.941406 2.3125 -15.515625 C 3.0625 -17.085938 4.097656 -18.316406 5.421875 -19.203125 C 6.742188 -20.085938 8.257812 -20.53125 9.96875 -20.53125 C 11.03125 -20.53125 11.984375 -20.351562 12.828125 -20 C 13.679688 -19.644531 14.441406 -18.957031 15.109375 -17.9375 L 15.109375 -27.046875 L 21.0625 -27.046875 L 21.0625 0 L 15.109375 0 L 15.109375 -2.15625 C 14.441406 -1.144531 13.679688 -0.460938 12.828125 -0.109375 C 11.984375 0.242188 11.03125 0.421875 9.96875 0.421875 Z M 11.625 -4.640625 C 12.945312 -4.640625 14.007812 -5.132812 14.8125 -6.125 C 15.625 -7.125 16.03125 -8.4375 16.03125 -10.0625 C 16.03125 -11.675781 15.625 -12.976562 14.8125 -13.96875 C 14.007812 -14.957031 12.945312 -15.453125 11.625 -15.453125 C 10.300781 -15.453125 9.238281 -14.945312 8.4375 -13.9375 C 7.632812 -12.9375 7.234375 -11.644531 7.234375 -10.0625 C 7.234375 -8.476562 7.632812 -7.175781 8.4375 -6.15625 C 9.238281 -5.144531 10.300781 -4.640625 11.625 -4.640625 Z M 11.625 -4.640625 "/></g></g></g><g fill="#ffffff" fill-opacity="1"><g transform="translate(118.985369, 35.487346)"><g><path d="M 14.640625 0.609375 C 12.328125 0.609375 10.316406 0.226562 8.609375 -0.53125 C 6.910156 -1.289062 5.507812 -2.328125 4.40625 -3.640625 C 3.3125 -4.953125 2.492188 -6.457031 1.953125 -8.15625 C 1.410156 -9.851562 1.140625 -11.648438 1.140625 -13.546875 C 1.140625 -15.429688 1.410156 -17.21875 1.953125 -18.90625 C 2.492188 -20.601562 3.3125 -22.109375 4.40625 -23.421875 C 5.507812 -24.734375 6.910156 -25.757812 8.609375 -26.5 C 10.316406 -27.25 12.328125 -27.625 14.640625 -27.625 C 16.929688 -27.625 18.921875 -27.25 20.609375 -26.5 C 22.304688 -25.757812 23.707031 -24.734375 24.8125 -23.421875 C 25.925781 -22.109375 26.753906 -20.601562 27.296875 -18.90625 C 27.835938 -17.21875 28.109375 -15.429688 28.109375 -13.546875 C 28.109375 -11.648438 27.835938 -9.851562 27.296875 -8.15625 C 26.753906 -6.457031 25.925781 -4.953125 24.8125 -3.640625 C 23.707031 -2.328125 22.304688 -1.289062 20.609375 -0.53125 C 18.921875 0.226562 16.929688 0.609375 14.640625 0.609375 Z M 14.640625 -5.0625 C 16.765625 -5.0625 18.421875 -5.828125 19.609375 -7.359375 C 20.804688 -8.898438 21.40625 -10.960938 21.40625 -13.546875 C 21.40625 -16.097656 20.804688 -18.132812 19.609375 -19.65625 C 18.421875 -21.1875 16.765625 -21.953125 14.640625 -21.953125 C 12.515625 -21.953125 10.847656 -21.1875 9.640625 -19.65625 C 8.429688 -18.132812 7.828125 -16.097656 7.828125 -13.546875 C 7.828125 -10.960938 8.429688 -8.898438 9.640625 -7.359375 C 10.847656 -5.828125 12.515625 -5.0625 14.640625 -5.0625 Z M 14.640625 -5.0625 "/></g></g></g><g fill="#ffffff" fill-opacity="1"><g transform="translate(148.26059, 35.487346)"><g><path d="M 9.078125 0.421875 C 5.785156 0.421875 3.625 -0.734375 2.59375 -3.046875 C 2.375 -3.523438 2.210938 -4 2.109375 -4.46875 C 2.003906 -4.9375 1.925781 -5.515625 1.875 -6.203125 C 1.832031 -6.890625 1.8125 -7.773438 1.8125 -8.859375 L 1.8125 -20.109375 L 7.765625 -20.109375 L 7.765625 -8.796875 C 7.765625 -7.796875 7.828125 -7.015625 7.953125 -6.453125 C 8.085938 -5.890625 8.304688 -5.441406 8.609375 -5.109375 C 9.085938 -4.609375 9.820312 -4.359375 10.8125 -4.359375 C 11.476562 -4.359375 12.019531 -4.445312 12.4375 -4.625 C 12.863281 -4.800781 13.207031 -5.054688 13.46875 -5.390625 C 13.96875 -6.046875 14.21875 -7.179688 14.21875 -8.796875 L 14.21875 -20.109375 L 20.171875 -20.109375 L 20.171875 0 L 14.21875 0 L 14.21875 -2.15625 C 13.625 -1.257812 12.921875 -0.601562 12.109375 -0.1875 C 11.296875 0.21875 10.285156 0.421875 9.078125 0.421875 Z M 9.078125 0.421875 "/></g></g></g><g fill="#ffffff" fill-opacity="1"><g transform="translate(170.376491, 35.487346)"><g><path d="M 12.90625 0 L 8.15625 0 C 6.6875 0 5.546875 -0.347656 4.734375 -1.046875 C 3.921875 -1.742188 3.515625 -2.726562 3.515625 -4 L 3.515625 -15.453125 L 0.75 -15.453125 L 0.75 -20.109375 L 3.515625 -20.109375 L 3.515625 -27.046875 L 9.46875 -27.046875 L 9.46875 -20.109375 L 12.9375 -20.109375 L 12.9375 -15.453125 L 9.46875 -15.453125 L 9.46875 -6.03125 C 9.46875 -5.75 9.535156 -5.476562 9.671875 -5.21875 C 9.816406 -4.957031 10.148438 -4.828125 10.671875 -4.828125 L 12.90625 -4.828125 Z M 12.90625 0 "/></g></g></g></g></g></svg>